<svg id="american-express" xmlns="http://www.w3.org/2000/svg" width="272.087" height="94.583" viewBox="0 0 272.087 94.583">
  <path id="Path_92" data-name="Path 92" d="M43.2,197.293h9.5L47.951,185.2Z" transform="translate(-19.878 -173.971)" fill="#2fabf7"/>
  <path id="Path_93" data-name="Path 93" d="M251.293,188.032a8.42,8.42,0,0,0-3.455-.432H239.2v6.91h8.638a8.419,8.419,0,0,0,3.455-.432c.864-.432,1.3-1.728,1.3-3.023A2.4,2.4,0,0,0,251.293,188.032Z" transform="translate(-110.067 -175.075)" fill="#228fe0"/>
  <path id="Path_94" data-name="Path 94" d="M233.65,164.4v5.183l-2.591-5.183h-20.3v5.183l-2.591-5.183H180.528a26.3,26.3,0,0,0-12.093,2.591V164.4H149v2.591a12.452,12.452,0,0,0-8.206-2.591H71.261L66.51,175.2l-4.751-10.8H39.733v5.183L37.142,164.4H18.571L9.933,184.7,0,207.157H22.026l2.591-6.91h6.046l2.591,6.91H58.3v-5.183l2.159,5.183H72.988l2.159-5.183v5.183H135.18V195.928h.864c.864,0,.864,0,.864,1.3v9.5H168v-2.591a25.872,25.872,0,0,0,11.661,2.591H192.62l2.591-6.91h6.046l2.591,6.91H228.9v-6.478l3.887,6.478h20.3V164.4ZM87.673,200.678H80.331V176.925L69.965,200.678H63.487L53.122,176.925v23.754H38.438L35.415,194.2H20.73l-2.591,6.91H9.933L22.89,170.446h10.8L45.78,199.383V170.446H57.441l9.5,20.73,8.638-20.73H87.673Zm29.368-23.754H100.2v5.615h16.412v6.046H100.2v6.046h16.843v6.478H92.855V170.446h24.186Zm32.391,12.525a10.8,10.8,0,0,1,1.3,5.614v6.046h-7.342v-3.887c0-1.728,0-4.319-1.3-6.046-1.3-1.3-2.591-1.3-5.183-1.3h-7.774V201.11h-7.342V170.446H138.2c3.887,0,6.478,0,8.638,1.3s3.455,3.455,3.455,6.91a8.6,8.6,0,0,1-5.183,8.206A8.212,8.212,0,0,1,149.432,189.449Zm12.957,11.229h-7.342V170.014h7.342Zm85.081,0H237.1l-13.82-22.89v22.89H208.6l-2.591-6.478H190.893l-2.591,6.91H180.1c-3.455,0-7.774-.864-10.365-3.455s-3.887-6.046-3.887-11.661c0-4.319.864-8.638,3.887-12.093,2.159-2.591,6.046-3.455,10.8-3.455h6.91v6.478h-6.91a7.964,7.964,0,0,0-5.614,1.728c-1.3,1.3-2.159,3.887-2.159,6.91,0,3.455.432,5.614,2.159,7.342a6.884,6.884,0,0,0,5.183,1.728h3.023l9.933-23.754h10.8l12.093,28.936V170.878h10.8l12.525,21.162V170.878h7.342v29.8Z" transform="translate(0 -164.4)" fill="#0571c1"/>
  <g id="Group_27" data-name="Group 27" transform="translate(108.835 11.229)">
    <path id="Path_95" data-name="Path 95" d="M358.4,197.293h9.933L363.583,185.2Z" transform="translate(-273.751 -185.2)" fill="#228fe0"/>
    <path id="Path_96" data-name="Path 96" d="M212.829,301.817V277.2L201.6,289.293Z" transform="translate(-201.6 -227.533)" fill="#228fe0"/>
  </g>
  <path id="Path_97" data-name="Path 97" d="M136.8,282.8v5.615h15.98v6.046H136.8v6.478h17.707l8.206-9.07-7.774-9.07Z" transform="translate(-62.948 -218.881)" fill="#2fabf7"/>
  <path id="SVGCleanerId_0" d="M245.07,282.8H236v7.774h9.5c2.591,0,4.319-1.3,4.319-3.887C249.388,284.1,247.661,282.8,245.07,282.8Z" transform="translate(-108.594 -218.881)" fill="#228fe0"/>
  <path id="Path_98" data-name="Path 98" d="M321.1,279.835V260.4H302.957q-5.83,0-9.07,2.591V260.4H274.02c-3.023,0-6.91.864-8.638,2.591V260.4H230.4v2.591c-2.591-2.159-7.342-2.591-9.5-2.591H197.577v2.591c-2.159-2.159-7.342-2.591-9.933-2.591H161.73l-6.046,6.478L150.07,260.4H111.2v42.325h38.006l6.046-6.478,5.614,6.478h23.322v-9.933h3.023c3.023,0,6.91,0,9.933-1.3v11.661H216.58V291.927h.864c1.3,0,1.3,0,1.3,1.3v9.933h58.736c3.887,0,7.774-.864,9.933-2.591v2.591H305.98c3.887,0,7.774-.432,10.365-2.159h0a14.7,14.7,0,0,0,6.91-12.957A16.539,16.539,0,0,0,321.1,279.835Zm-133.884,6.91h-8.638V297.11h-13.82l-8.638-9.933-9.07,9.933h-28.5V266.446h28.936l8.638,9.933,9.07-9.933h22.89c5.614,0,12.093,1.728,12.093,9.933C199.736,285.017,193.69,286.745,187.212,286.745Zm43.188-1.727a9.8,9.8,0,0,1,1.3,5.615v6.046h-7.342v-3.887c0-1.728,0-4.751-1.3-6.046-.864-1.3-2.591-1.3-5.183-1.3H210.1v11.229H202.76V266.014h16.412c3.455,0,6.478,0,8.638,1.3a7.64,7.64,0,0,1,3.887,6.91,8.6,8.6,0,0,1-5.183,8.206Q229.752,283.722,230.4,285.017Zm29.8-12.525H243.357v5.615h16.412v6.046H243.357V290.2H260.2v6.478H236.015V266.014H260.2Zm18.139,24.186h-13.82V290.2h13.82c1.3,0,2.159,0,3.023-.864a3.131,3.131,0,0,0,0-4.319,3.651,3.651,0,0,0-2.591-.864c-6.91-.432-15.116,0-15.116-9.5,0-4.319,2.591-9.07,10.365-9.07h14.252v7.342H274.884a6.4,6.4,0,0,0-3.023.432c-.864.432-.864,1.3-.864,2.159,0,1.3.864,1.728,1.728,2.159a5.477,5.477,0,0,0,2.591.432H279.2c3.887,0,6.478.864,8.206,2.591,1.3,1.3,2.159,3.455,2.159,6.478C289.568,293.655,285.681,296.678,278.339,296.678Zm37.142-3.023c-1.728,1.728-4.751,3.023-9.07,3.023h-13.82V290.2h13.82c1.3,0,2.159,0,3.023-.864a3.131,3.131,0,0,0,0-4.319,3.651,3.651,0,0,0-2.591-.864c-6.91-.432-15.116,0-15.116-9.5,0-4.319,2.591-9.07,10.365-9.07h14.252v7.342H303.389a6.4,6.4,0,0,0-3.023.432c-.864.432-.864,1.3-.864,2.159,0,1.3.432,1.728,1.728,2.159a5.477,5.477,0,0,0,2.591.432h3.887c3.887,0,6.478.864,8.206,2.591a.423.423,0,0,1,.432.432,9.916,9.916,0,0,1,1.728,6.046A8.79,8.79,0,0,1,315.481,293.655Z" transform="translate(-51.168 -208.574)" fill="#0571c1"/>
  <path id="SVGCleanerId_1" d="M307.293,284.032a8.421,8.421,0,0,0-3.455-.432H295.2v6.91h8.638a8.42,8.42,0,0,0,3.455-.432c.864-.432,1.3-1.728,1.3-3.023A2.4,2.4,0,0,0,307.293,284.032Z" transform="translate(-135.835 -219.249)" fill="#228fe0"/>
  <g id="Group_28" data-name="Group 28" transform="translate(108.835 11.229)">
    <path id="Path_99" data-name="Path 99" d="M251.293,188.032a8.42,8.42,0,0,0-3.455-.432H239.2v6.91h8.638a8.419,8.419,0,0,0,3.455-.432c.864-.432,1.3-1.728,1.3-3.023A2.4,2.4,0,0,0,251.293,188.032Z" transform="translate(-218.901 -186.304)" fill="#228fe0"/>
    <path id="Path_100" data-name="Path 100" d="M358.4,197.293h9.933L363.583,185.2Z" transform="translate(-273.751 -185.2)" fill="#228fe0"/>
    <path id="Path_101" data-name="Path 101" d="M212.829,301.817V277.2L201.6,289.293Z" transform="translate(-201.6 -227.533)" fill="#228fe0"/>
  </g>
  <g id="Group_29" data-name="Group 29" transform="translate(127.406 63.919)">
    <path id="SVGCleanerId_0_1_" d="M245.07,282.8H236v7.774h9.5c2.591,0,4.319-1.3,4.319-3.887C249.388,284.1,247.661,282.8,245.07,282.8Z" transform="translate(-236 -282.8)" fill="#228fe0"/>
  </g>
  <g id="Group_30" data-name="Group 30" transform="translate(159.365 64.351)">
    <path id="SVGCleanerId_1_1_" d="M307.293,284.032a8.421,8.421,0,0,0-3.455-.432H295.2v6.91h8.638a8.42,8.42,0,0,0,3.455-.432c.864-.432,1.3-1.728,1.3-3.023A2.4,2.4,0,0,0,307.293,284.032Z" transform="translate(-295.2 -283.6)" fill="#228fe0"/>
  </g>
  <g id="Group_31" data-name="Group 31">
    <path id="Path_102" data-name="Path 102" d="M184.62,295.815l-6.046-6.478v7.342H164.322l-8.638-9.933-9.5,9.933h-28.5V266.446h28.936l9.07,9.933L160,271.2l-10.8-10.8H111.2v42.325h38.006l6.478-6.478,5.615,6.478H184.62Z" transform="translate(-51.168 -208.574)" fill="#2fabf7"/>
    <path id="Path_103" data-name="Path 103" d="M88.536,206.725l-5.614-6.046H80.331v-2.591l-6.478-6.478-4.319,9.07H63.487L53.122,176.925v23.754H38.438L35.415,194.2H20.73l-3.023,6.478H9.933L22.89,170.446h10.8L45.78,199.383V170.446h6.478L46.212,164.4H39.733v5.183L37.574,164.4h-19L9.933,184.7,0,206.725H22.458l2.591-6.478H31.1l3.023,6.478H58.3v-5.183l2.159,5.183H72.988l2.159-5.183v5.183Z" transform="translate(0 -164.4)" fill="#2fabf7"/>
    <path id="Path_104" data-name="Path 104" d="M121.31,200.11l-6.91-6.91,5.183,11.229Z" transform="translate(-52.641 -177.652)" fill="#2fabf7"/>
  </g>
  <g id="Group_32" data-name="Group 32" transform="translate(42.757 0.432)">
    <path id="Path_105" data-name="Path 105" d="M345.426,299.461a15.8,15.8,0,0,0,6.91-11.661l-6.046-6.046a12.777,12.777,0,0,1,.864,4.319,8.79,8.79,0,0,1-2.591,6.478c-1.728,1.727-4.751,3.023-9.07,3.023h-13.82V289.1h13.82c1.3,0,2.159,0,3.023-.864a3.131,3.131,0,0,0,0-4.319,3.651,3.651,0,0,0-2.591-.864c-6.91-.432-15.116,0-15.116-9.5,0-4.319,2.591-8.206,9.07-9.07l-4.751-4.751c-.864.432-1.3.864-1.728.864V258H303.533c-3.023,0-6.91.864-8.638,2.591V258H259.481v2.591c-2.591-2.159-7.342-2.591-9.5-2.591H226.658v2.591c-2.159-2.159-7.342-2.591-9.933-2.591H190.812l-6.046,6.478L179.151,258H174.4l12.957,12.956,6.478-6.91h22.89c5.614,0,12.093,1.728,12.093,9.933,0,8.638-6.046,10.365-12.525,10.365h-8.638v6.478l6.478,6.478v-6.478h2.159c3.023,0,6.91,0,9.933-1.3v11.661h19.435V289.959h.864c1.3,0,1.3,0,1.3,1.3v9.933h58.736c3.887,0,7.774-.864,9.933-2.591v2.591h18.571a17.134,17.134,0,0,0,10.365-1.728Zm-85.945-15.548a9.8,9.8,0,0,1,1.3,5.615v6.046h-7.342v-3.887c0-1.728,0-4.751-1.3-6.046-.864-1.3-2.591-1.3-5.183-1.3h-7.774v11.229h-7.342V264.91h16.412c3.455,0,6.478,0,8.638,1.3a7.639,7.639,0,0,1,3.887,6.91,8.6,8.6,0,0,1-5.183,8.206Q258.833,282.617,259.481,283.913Zm29.8-12.525H272.438V277h16.412v6.046H272.438V289.1h16.844v6.478H265.1V264.91h24.185Zm18.139,24.185H293.6V289.1h13.82c1.3,0,2.159,0,3.023-.864a3.131,3.131,0,0,0,0-4.319,3.651,3.651,0,0,0-2.591-.864c-6.91-.432-15.116,0-15.116-9.5,0-4.319,2.591-9.07,10.365-9.07h14.252v7.342H303.965a6.4,6.4,0,0,0-3.023.432c-.864.432-.864,1.3-.864,2.159,0,1.3.864,1.728,1.728,2.159A5.478,5.478,0,0,0,304.4,277h3.887c3.887,0,6.478.864,8.206,2.591,1.3,1.3,2.159,3.455,2.159,6.478C318.649,292.551,314.762,295.574,307.42,295.574Z" transform="translate(-123.006 -207.901)" fill="#228fe0"/>
    <path id="Path_106" data-name="Path 106" d="M459.2,286.191c0,1.3.432,1.727,1.728,2.159a5.478,5.478,0,0,0,2.591.432h3.887a12.543,12.543,0,0,1,6.046,1.3l-6.478-6.478h-3.887a6.405,6.405,0,0,0-3.023.432A3.3,3.3,0,0,0,459.2,286.191Z" transform="translate(-254.055 -219.681)" fill="#228fe0"/>
    <path id="Path_107" data-name="Path 107" d="M431.2,240.4l.864,1.3h.432Z" transform="translate(-241.171 -199.803)" fill="#228fe0"/>
    <path id="Path_108" data-name="Path 108" d="M387.2,196.4l7.342,17.707V203.742Z" transform="translate(-220.925 -179.557)" fill="#228fe0"/>
    <path id="Path_109" data-name="Path 109" d="M171.623,196.3h.864c.864,0,.864,0,.864,1.3v9.5h31.1V204.5a25.872,25.872,0,0,0,11.661,2.591h12.957l2.591-6.91H237.7l2.591,6.91h25.049v-4.319l-6.046-6.046v4.751H244.612l-2.159-6.91H227.336l-2.591,6.91h-8.206c-3.455,0-7.774-.864-10.365-3.455s-3.887-6.046-3.887-11.661c0-4.319.864-8.638,3.887-12.093,2.159-2.591,6.046-3.455,10.8-3.455h6.91v6.478h-6.91a7.964,7.964,0,0,0-5.615,1.728c-1.3,1.3-2.159,3.887-2.159,6.91,0,3.455.432,5.614,2.159,7.342A6.884,6.884,0,0,0,216.539,195h3.023l9.933-23.754h4.319l-6.046-6.046H216.539a26.3,26.3,0,0,0-12.093,2.591V165.2h-19v2.591a12.452,12.452,0,0,0-8.206-2.591H107.7L102.954,176,98.2,165.2h-19l6.046,6.046h8.638l7.342,15.98,2.591,2.591,7.774-19h12.093v30.664h-7.342V177.725L109,195l12.525,12.525h49.667Zm19.867-25.481h7.342v30.664H191.49Zm-38.006,6.478H136.641v5.614h16.412v6.046H136.641V195h16.844v6.478H129.3V170.814h24.186Zm12.093,23.754h-7.342V170.383h16.412c3.887,0,6.478,0,8.638,1.3s3.455,3.455,3.455,6.91a8.6,8.6,0,0,1-5.183,8.206,5.654,5.654,0,0,1,3.455,2.591,10.8,10.8,0,0,1,1.3,5.614v6.046h-7.342V197.16c0-1.728,0-4.319-1.3-6.046-.432-.864-1.728-.864-4.319-.864h-7.774v10.8Z" transform="translate(-79.2 -165.2)" fill="#228fe0"/>
  </g>
</svg>
