<svg id="Mastercard" xmlns="http://www.w3.org/2000/svg" width="179.808" height="108.274" viewBox="0 0 179.808 108.274">
  <path id="Path_15" data-name="Path 15" d="M873.781,94.134a52.336,52.336,0,0,0,35.714,14.032c29.45,0,53.287-24.252,53.287-54.087C962.782,24.161,938.945-.1,909.495-.1a52.336,52.336,0,0,0-35.714,14.032,54.524,54.524,0,0,0,0,80.2Z" transform="translate(-782.973 0.1)" fill="#e9b040"/>
  <path id="Path_16" data-name="Path 16" d="M2047.5,981.354a1.647,1.647,0,0,1,1.654-1.654,1.669,1.669,0,0,1,1.745,1.654,1.689,1.689,0,0,1-1.745,1.745A1.669,1.669,0,0,1,2047.5,981.354Zm1.654,1.386a1.412,1.412,0,0,0,1.377-1.378,1.334,1.334,0,0,0-1.377-1.286,1.314,1.314,0,0,0-1.287,1.286A1.406,1.406,0,0,0,2049.154,982.74Zm-.184-.559h-.368v-1.562h.643a.558.558,0,0,1,.369.092c.182.092.182.184.182.367s-.092.368-.275.368l.368.735h-.46l-.184-.644h-.274v-.276h.366c.092,0,.092-.092.092-.184s0-.092-.092-.184h-.366Z" transform="translate(-1874.774 -897.052)" fill="#e9b040"/>
  <path id="Path_17" data-name="Path 17" d="M106.306,48.411c-.184-1.948-.551-3.812-.919-5.759H72.806a56.831,56.831,0,0,1,1.47-5.667h29.542q-.965-2.935-2.2-5.759H76.573c.919-1.965,1.938-3.887,3.04-5.759H98.48A48.053,48.053,0,0,0,94.429,19.8H83.664a52.605,52.605,0,0,1,5.429-5.759A52.971,52.971,0,0,0,53.287,0C23.929,0,0,24.252,0,54.179c0,29.834,23.929,54.087,53.287,54.087A52.566,52.566,0,0,0,89.092,94.234a50.849,50.849,0,0,0,5.337-5.667H83.664a64.351,64.351,0,0,1-4.051-5.759H98.48a44.008,44.008,0,0,0,3.132-5.759H76.573c-.827-1.855-1.654-3.719-2.305-5.667h29.55a58.91,58.91,0,0,0,1.562-5.759,57.858,57.858,0,0,0,.919-5.759c.184-1.88.276-3.778.276-5.667a56.787,56.787,0,0,0-.267-5.785Z" transform="translate(0 0.008)" fill="#cc2131"/>
  <path id="Path_18" data-name="Path 18" d="M2047.5,772.046a1.669,1.669,0,0,1,1.654-1.746,1.689,1.689,0,0,1,1.745,1.746,1.744,1.744,0,0,1-1.745,1.745A1.722,1.722,0,0,1,2047.5,772.046Zm1.654,1.295a1.289,1.289,0,1,0,0-2.572,1.286,1.286,0,1,0,0,2.572Zm-.184-.56h-.368v-1.47h1.012c.182.092.182.276.182.459a.493.493,0,0,1-.275.368l.368.643h-.46l-.184-.551h-.274v-.276h.184c.091,0,.183,0,.183-.092.092,0,.092-.092.092-.184a.09.09,0,0,0-.092-.092c0-.092-.092,0-.183,0h-.184Z" transform="translate(-1874.774 -705.315)" fill="#fff"/>
  <path id="Path_19" data-name="Path 19" d="M182.113,479.586l-1.021,5.888a11.268,11.268,0,0,0-5.206-1.47c-4.371,0-7.442,4.234-7.442,10.215,0,4.143,2.042,6.623,5.484,6.623a11.509,11.509,0,0,0,4.928-1.378l-1.021,6.164a19.62,19.62,0,0,1-5.113.827c-6.32,0-10.226-4.51-10.226-11.777,0-9.663,5.392-16.479,13.112-16.479a11.533,11.533,0,0,1,2.692.276l2.329.551c.742.284.928.376,1.485.559Zm-18.782,4.051h-.557c-1.949,0-3.071.918-4.835,3.591l.557-3.408h-5.307l-3.628,22.091h5.856c2.135-13.53,2.692-15.827,5.484-15.827h.371a22.912,22.912,0,0,1,2.228-6.347l-.169-.1Zm-33.658,22a12.205,12.205,0,0,1-4.185.735c-2.978,0-4.649-1.654-4.649-4.878a15.235,15.235,0,0,1,.186-1.938l.371-2.2.278-1.746,2.514-15.092h5.763l-.65,3.316h2.978l-.743,5.429h-2.987l-1.578,9.2a3.413,3.413,0,0,0-.093.919c0,1.1.557,1.562,1.949,1.562a3.9,3.9,0,0,0,1.578-.184l-.734,4.878Zm-22.41-14.825c0,2.764,1.3,4.694,4.371,6.164,2.422,1.1,2.793,1.47,2.793,2.4,0,1.378-1.021,2.021-3.35,2.021a17.579,17.579,0,0,1-5.206-.827l-.835,5.061.278.092,1.021.184a6.126,6.126,0,0,0,1.578.184,21.787,21.787,0,0,0,3.164.184c6.134,0,9.02-2.305,9.02-7.367,0-3.04-1.207-4.786-4.092-6.164-2.514-1.1-2.793-1.378-2.793-2.4,0-1.195,1.021-1.746,2.886-1.746a36.723,36.723,0,0,1,4.185.276l.835-5.062a34.1,34.1,0,0,0-5.113-.459c-6.514.008-8.834,3.416-8.741,7.459Zm119.383,15.1h-5.484l.278-2.121a7,7,0,0,1-5.392,2.4c-4.278,0-7.062-3.591-7.062-9.112,0-7.367,4.371-13.623,9.484-13.623,2.329,0,4,1.011,5.577,3.04l1.3-7.734h5.763l-4.464,27.153Zm-8.556-5.153c2.7,0,4.556-3.132,4.556-7.458,0-2.857-1.021-4.326-3.071-4.326-2.607,0-4.556,3.04-4.556,7.367.008,2.94,1.029,4.418,3.071,4.418Zm-70.572,4.686a19.324,19.324,0,0,1-6.041.919c-6.505,0-9.855-3.408-9.855-9.939,0-7.55,4.278-13.163,10.133-13.163,4.835,0,7.906,3.132,7.906,8.01a22.074,22.074,0,0,1-.743,5.521H137.385a1.777,1.777,0,0,0-.093.643c0,2.581,1.763,3.867,5.113,3.867a12.907,12.907,0,0,0,6.041-1.378l-.928,5.521ZM144.27,492.29v-1.1a2.563,2.563,0,0,0-2.793-2.856c-1.856,0-3.164,1.378-3.721,3.959ZM85.038,505.912H79.275l3.35-20.9-7.535,20.9h-4L70.627,485.2l-3.535,20.713H61.7l4.556-27.153h8.37l.278,16.846,5.577-16.846h9.113l-4.556,27.153Zm14.411-9.847c-.557,0-.835-.092-1.3-.092-3.257,0-4.928,1.194-4.928,3.408a1.946,1.946,0,0,0,2.042,2.2c2.422,0,4.092-2.213,4.185-5.521Zm4.278,9.847H98.893l.093-2.305a7.284,7.284,0,0,1-6.134,2.673c-3.164,0-5.3-2.4-5.3-5.98,0-5.429,3.721-8.561,10.226-8.561.65,0,1.485.092,2.422.184a4.593,4.593,0,0,0,.186-1.378c0-1.47-1.021-2.021-3.721-2.021a19.421,19.421,0,0,0-4.835.551L91,489.35l-.557.092.835-4.969a23.678,23.678,0,0,1,6.978-1.1c5.02,0,7.72,2.205,7.72,6.44a27.6,27.6,0,0,1-.464,4.418l-1.3,7.826-.186,1.378-.093,1.1-.093.827-.11.551Zm87.776-9.847c-.65,0-.928-.092-1.3-.092-3.35,0-5.02,1.194-5.02,3.408a2.016,2.016,0,0,0,2.143,2.2c2.32,0,4.084-2.213,4.177-5.521Zm4.278,9.847h-4.835l.093-2.305a7.284,7.284,0,0,1-6.134,2.673c-3.164,0-5.3-2.4-5.3-5.98,0-5.429,3.721-8.561,10.226-8.561.65,0,1.493.092,2.329.184a5.788,5.788,0,0,0,.278-1.378c0-1.47-1.021-2.021-3.721-2.021a20.148,20.148,0,0,0-4.928.551l-.743.276-.557.092.835-4.969a23.677,23.677,0,0,1,6.978-1.1c5.02,0,7.628,2.205,7.628,6.44a19.593,19.593,0,0,1-.464,4.418l-1.207,7.826-.186,1.378-.186,1.1-.093.827-.017.551ZM211.4,483.637h-.557c-1.949,0-3.071.918-4.835,3.591l.557-3.408h-5.3l-3.535,22.091h5.763c2.143-13.53,2.7-15.827,5.484-15.827h.371a22.914,22.914,0,0,1,2.228-6.347l-.177-.1Z" transform="translate(-56.547 -437.729)" fill="#fff"/>
</svg>
