<svg id="Paypal" xmlns="http://www.w3.org/2000/svg" width="269.479" height="71.827" viewBox="0 0 269.479 71.827">
  <path id="Path_1" data-name="Path 1" d="M915.518,19.637c-1.154,7.519-6.89,7.519-12.44,7.519H899.92L902.143,13.1a1.752,1.752,0,0,1,1.731-1.477h1.443c3.785,0,7.349,0,9.2,2.155,1.087,1.29,1.426,3.208,1,5.855M913.108,0H892.147a2.931,2.931,0,0,0-2.885,2.461L880.793,56.2a1.759,1.759,0,0,0,1.46,2,1.369,1.369,0,0,0,.271.017h10.76A2.056,2.056,0,0,0,895.3,56.5l2.41-15.241a2.916,2.916,0,0,1,2.868-2.461h6.636c13.815,0,21.776-6.67,23.863-19.925.933-5.788.034-10.336-2.664-13.527C925.4,1.85,920.117,0,913.108,0" transform="translate(-731.279 0)" fill="#009cde"/>
  <path id="Path_2" data-name="Path 2" d="M34.716,19.637c-1.137,7.519-6.891,7.519-12.441,7.519H19.118L21.342,13.1a1.752,1.752,0,0,1,1.731-1.477h1.443c3.785,0,7.349,0,9.2,2.155,1.086,1.29,1.426,3.208,1,5.855M32.306,0H11.345A2.931,2.931,0,0,0,8.46,2.461L-.009,56.2a1.747,1.747,0,0,0,1.46,2,1.46,1.46,0,0,0,.272.017H11.735A2.9,2.9,0,0,0,14.6,55.754L16.895,41.26A2.916,2.916,0,0,1,19.763,38.8H26.4c13.815,0,21.775-6.687,23.863-19.925C51.2,13.086,50.3,8.537,47.6,5.346,44.594,1.85,39.315,0,32.306,0M80.965,38.934a11.185,11.185,0,0,1-11.32,9.589,8.448,8.448,0,0,1-6.738-2.716,8.522,8.522,0,0,1-1.578-7.043,11.231,11.231,0,0,1,11.253-9.657,8.468,8.468,0,0,1,6.687,2.733,8.656,8.656,0,0,1,1.7,7.094M94.95,19.382H84.92a1.752,1.752,0,0,0-1.731,1.477l-.441,2.8-.7-1.018c-2.172-3.157-7.01-4.209-11.847-4.209-11.083,0-20.553,8.4-22.4,20.18-.967,5.889.407,11.507,3.734,15.428,3.055,3.6,7.434,5.109,12.644,5.109a19.225,19.225,0,0,0,13.9-5.737L77.639,56.2a1.747,1.747,0,0,0,1.46,2,1.46,1.46,0,0,0,.272.017H88.4a2.931,2.931,0,0,0,2.885-2.461L96.715,21.4a1.759,1.759,0,0,0-1.46-2,1.65,1.65,0,0,1-.305-.017" transform="translate(0.032 0)" fill="#003087"/>
  <path id="Path_3" data-name="Path 3" d="M1194.281,129.1a11.185,11.185,0,0,1-11.321,9.589,7.787,7.787,0,0,1-8.317-9.759,11.231,11.231,0,0,1,11.253-9.657,8.468,8.468,0,0,1,6.687,2.733,8.657,8.657,0,0,1,1.7,7.094m13.985-19.552h-10.031a1.752,1.752,0,0,0-1.731,1.477l-.441,2.8-.7-1.018c-2.172-3.157-7.01-4.209-11.846-4.209-11.083,0-20.554,8.4-22.4,20.18-.967,5.889.408,11.507,3.734,15.428,3.054,3.6,7.434,5.109,12.644,5.109a19.226,19.226,0,0,0,13.9-5.737l-.442,2.783a1.747,1.747,0,0,0,1.443,2,1.552,1.552,0,0,0,.288.017h9.029a2.932,2.932,0,0,0,2.886-2.461l5.431-34.352a1.759,1.759,0,0,0-1.459-2,1.56,1.56,0,0,1-.306-.017" transform="translate(-963.792 -90.168)" fill="#009cde"/>
  <path id="Path_4" data-name="Path 4" d="M645.676,114.217h-10.1a2.911,2.911,0,0,0-2.41,1.273L619.25,135.975l-5.907-19.688a2.944,2.944,0,0,0-2.783-2.088h-9.912a1.746,1.746,0,0,0-1.749,1.748,1.563,1.563,0,0,0,.1.56l11.117,32.621-10.455,14.749a1.758,1.758,0,0,0,1.426,2.767h10.081a2.929,2.929,0,0,0,2.393-1.256l33.554-48.439a1.738,1.738,0,0,0-1.442-2.733" transform="translate(-497.248 -94.818)" fill="#003087"/>
  <path id="Path_5" data-name="Path 5" d="M1467.9,1.477l-8.6,54.719a1.758,1.758,0,0,0,1.459,2,1.47,1.47,0,0,0,.272.017h8.656a2.931,2.931,0,0,0,2.885-2.461l8.486-53.734a1.746,1.746,0,0,0-1.46-2A1.454,1.454,0,0,0,1479.32,0h-9.674a1.743,1.743,0,0,0-1.748,1.477" transform="translate(-1211.595 0)" fill="#009cde"/>
</svg>
