<svg id="Visa" xmlns="http://www.w3.org/2000/svg" width="224.265" height="72.758" viewBox="0 0 224.265 72.758">
  <g id="Group_3" data-name="Group 3" transform="translate(0 0)">
    <path id="Path_11" data-name="Path 11" d="M97.221,71.543h-18.3L90.356,1.258h18.3ZM63.528,1.258,46.079,49.6,44.011,39.182h0L37.861,7.589s-.746-6.331-8.676-6.331H.341L0,2.441a68.437,68.437,0,0,1,19.144,8.037l15.9,61.065H54.116L83.225,1.258ZM207.456,71.543h16.809L209.609,1.258H194.9c-6.79,0-8.453,5.234-8.453,5.234L159.16,71.543h19.08l3.816-10.435h23.258l2.142,10.435ZM187.321,46.676l9.614-26.306,5.4,26.306ZM160.588,18.163,163.2,3.07A52.739,52.739,0,0,0,146.742,0C137.661,0,116.1,3.965,116.1,23.269c0,18.163,25.315,18.387,25.315,27.927s-22.7,7.824-30.2,1.812L108.5,68.793s8.175,3.965,20.657,3.965,31.327-6.47,31.327-24.068c0-18.28-25.539-19.975-25.539-27.927s17.822-6.918,25.645-2.6Z" transform="translate(0 0)" fill="#2566af"/>
  </g>
  <path id="Path_12" data-name="Path 12" d="M44.022,49.646,37.861,18.031S37.115,11.7,29.184,11.7H.341L0,12.894A70.981,70.981,0,0,1,27.159,26.527,54.856,54.856,0,0,1,44.022,49.646Z" transform="translate(0 -10.453)" fill="#e6a540"/>
</svg>
