<svg id="gallery-cloud" enable-background="new 0 0 300 300" height="512" viewBox="0 0 300 300" width="512" xmlns="http://www.w3.org/2000/svg"><g><path d="m64 60c-7.719 0-14-6.281-14-14s6.281-14 14-14 14 6.281 14 14-6.281 14-14 14zm0-20c-3.309 0-6 2.691-6 6s2.691 6 6 6 6-2.691 6-6-2.691-6-6-6z" fill="#4c241d"/><circle cx="144" cy="114" fill="#d2ddff" r="86"/><g><path d="m205 102.55c-1.284 0-2.549.078-3.797.212.725-3.267 1.135-6.651 1.135-10.134 0-25.939-21.194-46.967-47.338-46.967-22.182 0-40.748 15.159-45.881 35.59-4.209-2.232-9.012-3.506-14.119-3.506-14.869 0-27.178 10.743-29.554 24.826-.15-.002-.296-.022-.446-.022-19.33 0-35 15.547-35 34.725 0 19.179 15.67 34.726 35 34.726h140c19.33 0 35-15.547 35-34.725s-15.67-34.725-35-34.725z" fill="#fff"/><path d="m205 176h-140c-21.504 0-39-17.371-39-38.727 0-20.422 16.004-37.203 36.215-38.625 3.961-14.613 17.258-24.902 32.785-24.902 3.953 0 7.887.691 11.594 2.027 7.136-20.304 26.414-34.113 48.406-34.113 28.309 0 51.34 22.863 51.34 50.969 0 1.961-.121 3.945-.363 5.934 21.054.515 38.023 17.683 38.023 38.71 0 21.356-17.496 38.727-39 38.727zm-140.039-69.449c-17.055 0-30.961 13.781-30.961 30.722s13.906 30.727 31 30.727h140c17.094 0 31-13.785 31-30.727s-13.906-30.723-31-30.723c-1.141 0-2.262.07-3.375.188-1.266.148-2.547-.348-3.406-1.312-.855-.961-1.199-2.277-.922-3.531.691-3.105 1.043-6.223 1.043-9.266 0-23.691-19.441-42.969-43.34-42.969-19.91 0-37.184 13.391-42.004 32.566-.301 1.191-1.129 2.18-2.254 2.68-1.125.496-2.414.453-3.5-.121-3.746-1.988-7.98-3.039-12.242-3.039-12.738 0-23.512 9.039-25.609 21.488-.324 1.926-1.992 3.336-3.945 3.336-.091 0-.395-.011-.485-.019z" fill="#4c241d"/></g><g fill="#4c241d"><circle cx="256" cy="80" r="5"/><path d="m130.129 82.793c-.691 0-1.391-.18-2.027-.555-1.902-1.121-2.535-3.574-1.414-5.477 6.089-10.339 17.324-16.761 29.312-16.761 2.211 0 4 1.789 4 4s-1.789 4-4 4c-9.168 0-17.762 4.914-22.422 12.824-.746 1.266-2.078 1.969-3.449 1.969z"/><path d="m114 240h-4c-13.234 0-24-10.766-24-24v-68.934c0-10.511 8.555-19.066 19.066-19.066h12.934c2.211 0 4 1.789 4 4s-1.789 4-4 4h-12.934c-6.101 0-11.066 4.965-11.066 11.066v68.934c0 8.824 7.176 16 16 16h4c2.211 0 4 1.789 4 4s-1.789 4-4 4z"/><path d="m106.004 148c-1.219 0-2.418-.551-3.203-1.602-1.328-1.766-.969-4.273.801-5.598l11.73-8.801-11.73-8.801c-1.77-1.324-2.129-3.832-.801-5.598 1.324-1.77 3.836-2.125 5.598-.801l16 12c1.008.754 1.602 1.941 1.602 3.199s-.594 2.445-1.602 3.199l-16 12c-.719.541-1.559.803-2.395.803z"/></g><g><path d="m126 200h64v68h-64z" fill="#fff"/><path d="m190 272h-64c-2.211 0-4-1.789-4-4v-68c0-2.211 1.789-4 4-4h64c2.211 0 4 1.789 4 4v68c0 2.211-1.789 4-4 4zm-60-8h56v-60h-56z" fill="#4c241d"/></g><g><path d="m126 256h64v12h-64z" fill="#6b4f5b"/><path d="m190 272h-64c-2.211 0-4-1.789-4-4v-12c0-2.211 1.789-4 4-4h64c2.211 0 4 1.789 4 4v12c0 2.211-1.789 4-4 4zm-60-8h56v-4h-56z" fill="#4c241d"/></g><g><path d="m126 256 21.333-20 21.334 8 21.167-24.318v36.318z" fill="#a9ba5a"/><path d="m189.836 260h-63.836c-1.641 0-3.117-1.004-3.719-2.527-.605-1.527-.215-3.27.984-4.391l21.332-20c1.113-1.039 2.719-1.359 4.141-.828l18.734 7.027 19.348-22.223c1.094-1.262 2.855-1.707 4.418-1.121s2.598 2.078 2.598 3.746v36.317c0 2.211-1.789 4-4 4zm-53.723-8h49.723v-21.629l-14.152 16.254c-1.098 1.262-2.855 1.707-4.422 1.121l-19.008-7.129z" fill="#4c241d"/></g><g><circle cx="144" cy="218" fill="#ffce56" r="6"/><path d="m144 228c-5.516 0-10-4.484-10-10s4.484-10 10-10 10 4.484 10 10-4.484 10-10 10zm0-12c-1.102 0-2 .898-2 2s.898 2 2 2 2-.898 2-2-.898-2-2-2z" fill="#4c241d"/></g><g><path d="m206 200h64v68h-64z" fill="#fff"/><path d="m270 272h-64c-2.211 0-4-1.789-4-4v-68c0-2.211 1.789-4 4-4h64c2.211 0 4 1.789 4 4v68c0 2.211-1.789 4-4 4zm-60-8h56v-60h-56z" fill="#4c241d"/></g><g><path d="m206 256h64v12h-64z" fill="#6b4f5b"/><path d="m270 272h-64c-2.211 0-4-1.789-4-4v-12c0-2.211 1.789-4 4-4h64c2.211 0 4 1.789 4 4v12c0 2.211-1.789 4-4 4zm-60-8h56v-4h-56z" fill="#4c241d"/></g><g><path d="m206 256 21.333-20 21.334 8 21.167-24.318v36.318z" fill="#a9ba5a"/><path d="m269.836 260h-63.836c-1.641 0-3.117-1.004-3.719-2.527-.605-1.527-.215-3.27.984-4.391l21.332-20c1.113-1.039 2.719-1.359 4.141-.828l18.734 7.027 19.348-22.223c1.094-1.262 2.855-1.707 4.418-1.121s2.598 2.078 2.598 3.746v36.317c0 2.211-1.789 4-4 4zm-53.723-8h49.723v-21.629l-14.152 16.254c-1.094 1.262-2.855 1.707-4.422 1.121l-19.008-7.129z" fill="#4c241d"/></g><g><circle cx="224" cy="218" fill="#ffce56" r="6"/><path d="m224 228c-5.516 0-10-4.484-10-10s4.484-10 10-10 10 4.484 10 10-4.484 10-10 10zm0-12c-1.102 0-2 .898-2 2s.898 2 2 2 2-.898 2-2-.898-2-2-2z" fill="#4c241d"/></g></g></svg>