<svg xmlns="http://www.w3.org/2000/svg" width="82.387" height="82.131" viewBox="0 0 82.387 82.131">
  <defs>
    <style>
      .cls-1 {
        fill: #193651;
      }

      .cls-2 {
        fill: #fff;
      }

      .cls-3 {
        fill: #fdbf5e;
      }

      .cls-4 {
        fill: #2ea2db;
      }

      .cls-5 {
        fill: #f16051;
      }
    </style>
  </defs>
  <g id="api_1_" data-name="api (1)" transform="translate(0 -0.8)">
    <g id="Group_155" data-name="Group 155" transform="translate(7.944 47.695)">
      <rect id="Rectangle_52" data-name="Rectangle 52" class="cls-1" width="2.563" height="2.563"/>
      <rect id="Rectangle_53" data-name="Rectangle 53" class="cls-1" width="2.563" height="2.563" transform="translate(0 7.56)"/>
      <rect id="Rectangle_54" data-name="Rectangle 54" class="cls-1" width="2.563" height="2.563" transform="translate(0 15.247)"/>
    </g>
    <path id="Path_91" data-name="Path 91" class="cls-2" d="M149.638,170.107a25.387,25.387,0,0,0,.641,8.2l-5,3.716L149,189.2l5.894-1.922a25.019,25.019,0,0,0,6.278,5.381l-.9,6.022,7.688,2.434,2.819-5.51a25.387,25.387,0,0,0,8.2-.641l3.716,5,7.175-3.716-1.922-5.894a22.155,22.155,0,0,0,5.253-6.278l6.15.9,2.434-7.688-5.51-2.947a25.387,25.387,0,0,0-.641-8.2l5-3.716-3.844-7.175-5.894,1.922a25.018,25.018,0,0,0-6.278-5.381l.9-6.15-7.688-2.434-2.819,5.638a25.387,25.387,0,0,0-8.2.641l-3.716-5-7.175,3.716,1.922,5.894a22.155,22.155,0,0,0-5.253,6.278l-6.15-.9L144,167.16Z" transform="translate(-120.937 -119.593)"/>
    <circle id="Ellipse_6" data-name="Ellipse 6" class="cls-3" cx="18.579" cy="18.579" r="18.579" transform="translate(33.347 34.106)"/>
    <g id="Group_156" data-name="Group 156" transform="translate(37.157 45.005)">
      <path id="Path_92" data-name="Path 92" class="cls-1" d="M241.738,291.15h-1.922v-9.482a2.947,2.947,0,1,0-5.894,0v9.482H232v-9.482a4.869,4.869,0,1,1,9.738,0Z" transform="translate(-232 -276.8)"/>
      <path id="Path_93" data-name="Path 93" class="cls-1" d="M310.722,291.15H308.8V276.8h5.125a3.718,3.718,0,0,1,3.716,3.716v1.666a3.718,3.718,0,0,1-3.716,3.716h-3.2Zm0-7.175h3.2a1.752,1.752,0,0,0,1.794-1.794v-1.666a1.752,1.752,0,0,0-1.794-1.794h-3.2Z" transform="translate(-296.5 -276.8)"/>
      <path id="Path_94" data-name="Path 94" class="cls-1" d="M381.638,278.722V276.8H376v1.922h1.922v11.4H376v1.922h5.638v-1.922h-1.794v-11.4Z" transform="translate(-352.937 -276.8)"/>
      <rect id="Rectangle_55" data-name="Rectangle 55" class="cls-1" width="7.816" height="1.922" transform="translate(0.897 6.278)"/>
    </g>
    <path id="Path_95" data-name="Path 95" class="cls-2" d="M51.051,21.1v-.384a11.93,11.93,0,0,0-22.294-5.894,8.108,8.108,0,0,0-5.51-2.05,8.532,8.532,0,0,0-8.457,8.457v.128a10.834,10.834,0,0,0,3.972,20.885H47.976A10.745,10.745,0,0,0,58.739,31.479,10.328,10.328,0,0,0,51.051,21.1Z" transform="translate(-6.719 -6.719)"/>
    <path id="Path_96" data-name="Path 96" class="cls-1" d="M76.621,53.974a21.167,21.167,0,0,0-.641-6.919l5.125-3.844-4.741-9.1-6.15,2.05a22.794,22.794,0,0,0-5.381-4.485l1.025-6.406L56.121,22.2,53.3,27.963h-.256a12.908,12.908,0,0,0,.384-3.2,12.1,12.1,0,0,0-7.816-11.275A13.162,13.162,0,0,0,32.417.8,13.415,13.415,0,0,0,21.654,6.31,10.272,10.272,0,0,0,16.529,4.9a9.774,9.774,0,0,0-9.738,8.969A11.9,11.9,0,0,0,0,24.76,12.03,12.03,0,0,0,12.044,36.8H32.8c-.641.9-1.281,1.666-1.922,2.691L24.473,38.47l-2.947,9.866,5.766,2.819a21.167,21.167,0,0,0,.641,6.919l-5.125,3.844,4.741,9.1,6.15-2.05a22.794,22.794,0,0,0,5.381,4.485l-1.025,6.406,9.738,3.075,2.819-5.766a25.348,25.348,0,0,0,6.919-.641l3.844,5.125,9.1-4.741-2.05-6.15a22.794,22.794,0,0,0,4.485-5.381L79.312,66.4l3.075-9.866ZM2.691,24.76a9.3,9.3,0,0,1,6.022-8.841l.769-.513v-.9a7.163,7.163,0,0,1,7.175-7.175A7.529,7.529,0,0,1,21.269,9l1.153,1.025.9-1.281A10.621,10.621,0,0,1,43.18,14v1.409l.9.256A9.61,9.61,0,0,1,51,24.888a9.46,9.46,0,0,1-9.482,9.482H12.172A9.57,9.57,0,0,1,2.691,24.76ZM77.518,63.84l-5.894-.9-.513.769a20.585,20.585,0,0,1-5,6.022l-.641.513L67.4,75.884l-5.253,2.691-3.588-4.869-.9.256a22.836,22.836,0,0,1-7.816.641l-.9-.128-2.563,5.51L40.745,78.19l.9-5.894-.769-.384a22.384,22.384,0,0,1-6.022-5l-.513-.641L28.7,68.2,26.01,62.943l4.869-3.588-.256-.9a22.836,22.836,0,0,1-.641-7.816l.128-.9L24.6,47.055l1.794-5.638,5.894.9.384-.769a21.2,21.2,0,0,1,3.588-4.613h5a12,12,0,0,0,10.635-6.406,9.7,9.7,0,0,1,1.922.128l.9.128L57.4,25.4l5.638,1.794-.769,5.766.769.384a22.384,22.384,0,0,1,6.022,5l.513.641,5.638-1.922L77.9,42.314,73.034,45.9l.256.9a22.836,22.836,0,0,1,.641,7.816l-.128.9L79.184,58.2Z" transform="translate(0 0)"/>
    <path id="Path_97" data-name="Path 97" class="cls-4" d="M164.966,89.229H171.5V82.694l-1.922,1.922L161.891,76.8,159.2,79.491l7.816,7.816Z" transform="translate(-133.702 -63.828)"/>
    <path id="Path_98" data-name="Path 98" class="cls-5" d="M100.135,100.8H93.6v6.535l2.05-1.922,7.688,7.816,2.691-2.691-7.816-7.816Z" transform="translate(-78.609 -83.984)"/>
  </g>
</svg>
